<?xml version="1.0" encoding="utf-8"?>
<!-- Generator: Adobe Illustrator 24.0.1, SVG Export Plug-In . SVG Version: 6.00 Build 0)  -->
<svg width="300px" height="100px" version="1.1" id="img" xmlns="http://www.w3.org/2000/svg" xmlns:xlink="http://www.w3.org/1999/xlink" x="0px" y="0px"
	 viewBox="0 0 286.8999939 53.7000008" style="enable-background:new 0 0 286.8999939 53.7000008;" xml:space="preserve" fill="#ffffff">
<style type="text/css">
	.st0{fill:#FFFFFF;}
</style>
<g>
	<path class="st0" d="M35.3786011,29.5977993h-3.3689194H12.3328209c0,0,0,0,0-0.039753
		c0-6.3601971,5.1676617-11.5179195,11.5179214-11.5179195c3.1105366,0,5.9328709,1.2422256,8.0198116,3.2397251
		c0,0.039753,0.039753,0.039753,0.0894413,0.0894413c0.0397511,0.0397511,0.0894394,0.0894394,0.1291924,0.0894394
		C34.0966263,23.5456734,35.3786011,26.3978233,35.3786011,29.5977993L35.3786011,29.5977993L35.3786011,29.5977993z
		 M32.3873215,30.7505856h2.9415894v7.5527325l-2.9415894-1.9179955V30.7505856z M31.2842236,35.6201096l-7.5129833-4.869524
		h7.5129833V35.6201096L31.2842236,35.6201096z M31.2842236,47.0982819l-11.4384193-6.320446V30.7505856h1.8782463
		c0.0397511,0.0397511,0.0397511,0.0397511,0.0894394,0.0894394l9.4309807,6.1415653L31.2842236,47.0982819L31.2842236,47.0982819z
		 M14.7675848,36.6834564c-1.3614798-1.749054-2.1763802-3.7962418-2.3850756-5.9726238h6.3204479v5.9726238H14.7675848z
		 M23.8606815,6.2538843c6.1415653,0,11.8657436,2.3850746,16.1290607,6.7477722l-7.6421738,7.2148504
		c-2.2658215-2.0471878-5.2074108-3.2894154-8.4968262-3.2894154c-6.9564667,0-12.6309557,5.6744881-12.6309557,12.6309547
		c0,0.1291924,0,0.2583847,0,0.4273262c-0.0397511,0.039753-0.0397511,0.1291924-0.0397511,0.1689434
		c0,0.0894413,0,0.1689434,0.0397511,0.2086926c0.1689434,2.4745159,1.0235939,4.8198376,2.5639553,6.8272762l0,0
		c0,0.1291924,0.0397511,0.2086945,0.0894403,0.2981339l-7.006156,6.6185799
		c-3.7068031-4.1738777-5.7539921-9.5104828-5.7539921-15.1054707C1.1130346,16.4600143,11.309227,6.2538843,23.8606815,6.2538843
		 M41.3512268,13.0414076v-0.0397511v-0.0397511v-0.0496883v-0.0397511
		c-0.039753-0.0894413-0.0894432-0.1291924-0.1291924-0.1689434c-4.5614548-4.9092779-10.7527103-7.5527349-17.3613529-7.5527349
		C10.7129583,5.1507874,0,15.8637457,0,29.0015297c0,6.0620651,2.2658205,11.8657455,6.3999496,16.2582588
		c0.0397511,0.039753,0.0397511,0.039753,0.0894403,0.039753l0,0c0.0397511,0,0.0397511,0.039753,0.0894403,0.039753l0,0
		c0.0397511,0,0.0397511,0.039753,0.0894403,0.039753l0,0c0.0397511,0,0.0894403,0,0.1291919,0c0.0397511,0,0.0894403,0,0.0894403,0
		h0.0397511h0.0298128c0,0,0.0397511,0,0.0397511-0.039753h0.0397511l0.0397515-0.039753c0,0,0,0,0.0397511-0.039753l0,0l0,0l0,0
		l8.0198116-7.4732323c0,0,0,0,0-0.039753h3.4583578v3.3291664c0,0,0,0,0,0.0397491v0.039753v0.039753v0.039753v0.039753
		c0,0,0,0.0397491,0.0397511,0.0397491c0.039753,0,0,0.039753,0.039753,0.039753c0,0,0,0.039753,0.0397511,0.039753
		l0.039753,0.039753l0.0397511,0.039753l0.039753,0.0397491l0,0l12.720396,6.9962196l0,0
		c0.0397511,0,0.0397511,0.039753,0.0894394,0.039753h0.039753c0.0397511,0,0.0894394,0,0.1291924,0l0,0l0,0
		c0.0397511,0,0.0894394,0,0.1291924,0h0.039753c0.0397511,0,0.0894413-0.039753,0.0894413-0.039753h0.0397491
		c0.039753-0.039753,0.0894432-0.039753,0.0894432-0.0894394l0,0c0.0397491-0.039753,0.0397491-0.0894394,0.0894394-0.0894394l0,0
		c0,0,0,0,0-0.039753c0,0,0-0.039753,0.039753-0.039753v-0.039753v-0.0397606c0-0.0397491,0-0.0397491,0-0.0397491s0,0,0-0.039753
		V37.7070503l3.1999741,2.0869408l0,0l0,0c0.039753,0,0.039753,0.039753,0.0894394,0.039753c0,0,0,0,0.039753,0
		s0.039753,0,0.0894394,0.0397491c0,0,0,0,0.039753,0s0.0894432,0,0.0894432,0l0,0c0.0397491,0,0.0894394,0,0.1291924,0h0.0397491
		c0.039753,0,0.039753-0.0397491,0.0894432-0.0397491c0,0,0.0397491,0,0.0397491-0.039753
		c0.039753,0,0.039753-0.039753,0.0894432-0.039753c0,0,0.039753,0,0.039753-0.039753
		c0.0397491-0.039753,0.0397491-0.039753,0.0894394-0.0894394l0,0c0,0,0,0,0-0.039753s0.039753-0.039753,0.039753-0.0894394
		v-0.039753v-0.039753c0-0.039753,0-0.039753,0-0.0894394v-0.039753V30.710825c0-0.0397511,0.0397491-0.0894394,0.0397491-0.1689415
		v-0.9838448c0-3.3291664-1.2819786-6.320446-3.3689156-8.5763283l8.0198135-7.5924873l0,0
		C41.2717209,13.3395424,41.3512268,13.1705999,41.3512268,13.0414076L41.3512268,13.0414076"/>
</g>
<g>
	<g>
		<g>
			<path class="st0" d="M278,35.9999924v-6.5c0-0.2000008,0.1000061-0.2999992,0.2999878-0.2999992H283
				c0.2000122,0,0.2999878,0.1000004,0.2999878,0.2999992v6.5c0,0.4000015,0.2000122,0.5999985,0.6000061,0.5999985h2.3999939
				c0.3999939,0,0.6000061-0.2000008,0.6000061-0.5999985V19.399992c0-0.3999996-0.2000122-0.6000004-0.6000061-0.6000004
				h-2.3999939c-0.3999939,0-0.6000061,0.2000008-0.6000061,0.6000004v6.5c0,0.2000008-0.1000061,0.2999992-0.2999878,0.2999992
				h-4.7000122C278.0999756,26.1999912,278,26.0999908,278,25.899992v-6.5c0-0.3999996-0.2000122-0.6000004-0.6000061-0.6000004H275
				c-0.3999939,0-0.6000061,0.2000008-0.6000061,0.6000004v16.6000004c0,0.4000015,0.2000122,0.5999985,0.6000061,0.5999985
				h2.3999939C277.7999878,36.5999908,278,36.3999939,278,35.9999924 M270.5,35.3999939
				c0.7999878-0.7999992,1.2000122-1.9000015,1.2000122-3.2999992v-1.2999992c0-0.3999996-0.2000122-0.6000004-0.6000061-0.6000004
				h-2.2999878c-0.3999939,0-0.6000061,0.2000008-0.6000061,0.6000004v1.1000004
				c0,0.6000004-0.1000061,0.9999981-0.3999939,1.3000011c-0.2999878,0.2999992-0.7000122,0.4000015-1.2999878,0.4000015h-1.8999939
				c-0.6000061,0-1-0.0999985-1.2000122-0.4000015c-0.2000122-0.2999992-0.3999939-0.7000008-0.3999939-1.2999992v-8.3999996
				c0-0.6000004,0.1000061-1,0.3999939-1.2999992s0.7000122-0.3999996,1.2000122-0.3999996h1.8999939
				c0.6000061,0,1,0.1000004,1.2999878,0.3999996s0.3999939,0.7000008,0.3999939,1.2999992v1.1000004
				c0,0.3999996,0.2000122,0.6000004,0.6000061,0.6000004h2.2999878c0.3999939,0,0.6000061-0.2000008,0.6000061-0.6000004
				v-1.2999992c0-1.3999996-0.3999939-2.5-1.2000122-3.2999992c-0.7999878-0.7999992-1.8999939-1.2000008-3.3999939-1.2000008h-3
				c-1.5,0-2.6000061,0.3999996-3.3999939,1.2000008C259.9000244,20.7999992,259.5,21.8999996,259.5,23.3999996v8.8000011
				c0,1.5,0.3999939,2.5999985,1.2000122,3.2999992c0.7999878,0.7999992,1.8999939,1.2000008,3.3999939,1.2000008h3
				C268.6000061,36.5999908,269.7000122,36.1999931,270.5,35.3999939 M250.6999969,22.1999931l2,8h-4.1000061l2-8H250.6999969z
				 M247,36.4999924c0.1000061-0.0999985,0.1000061-0.2000008,0.1999969-0.5l0.8000031-3h5.3999939l0.8000031,3
				c0,0.2000008,0.1000061,0.4000015,0.1999969,0.5c0.1000061,0.0999985,0.1999969,0.0999985,0.3999939,0.0999985h2.6000061
				c0.2999878,0,0.3999939-0.2000008,0.2999878-0.5999985l-4.3999939-16.6000004
				c-0.1000061-0.3999996-0.3999939-0.6000004-0.8000031-0.6000004h-3.6999969
				c-0.3999939,0-0.6999969,0.2000008-0.8000031,0.6000004l-4.3999786,16.6000004
				c-0.1000061,0.4000015,0,0.5999985,0.3000031,0.5999985h2.6000061C246.8000031,36.5999908,246.8999939,36.5999908,247,36.4999924
				 M240.5,35.4999924c0.8000031-0.7999992,1.1999969-1.9000015,1.1999969-3.2999992v-8.7999992
				c0-1.5-0.3999939-2.6000004-1.1999969-3.3999996s-1.8999939-1.2000008-3.3999939-1.2000008H234
				c-1.5,0-2.6000061,0.3999996-3.3999939,1.2000008c-0.8000031,0.7999992-1.1999969,1.8999996-1.1999969,3.3999996v8.7999992
				c0,1.5,0.3999939,2.5999985,1.1999969,3.2999992C231.4000092,36.2999916,232.5,36.6999931,234,36.6999931h3.1000061
				C238.6000061,36.5999908,239.8000031,36.1999931,240.5,35.4999924 M233.3999939,33.1999931
				C233.1999969,32.9999924,233,32.4999924,233,31.8999939v-8.3999996c0-0.6000004,0.1000061-1,0.3999939-1.2999992
				S234,21.7999954,234.5999908,21.7999954h2c0.6000061,0,1,0.1000004,1.3000031,0.3999996s0.3999939,0.7000008,0.3999939,1.2999992
				v8.3999996c0,0.5999985-0.1000061,1-0.3999939,1.2999992c-0.3000031,0.2999992-0.6999969,0.4000015-1.3000031,0.4000015h-2
				C234,33.5999908,233.6000061,33.4999924,233.3999939,33.1999931 M218.5,26.899992v-4.8000011
				c0-0.2000008,0.1000061-0.2999992,0.3000031-0.2999992H221.5c0.6000061,0,1,0.1000004,1.3000031,0.3999996
				s0.3999939,0.7000008,0.3999939,1.2000008v2.2000008c0,0.5-0.1000061,1-0.3999939,1.2000008
				C222.5,26.9999943,222.1000061,27.1999931,221.5,27.1999931h-2.6999969C218.6000061,27.2999916,218.5,27.1999931,218.5,26.899992
				 M218.5,35.9999924v-5.7000008c0-0.2000008,0.1000061-0.2999992,0.3000031-0.2999992h1.8999939l2.8000031,6
				c0.1000061,0.2000008,0.1999969,0.4000015,0.3999939,0.5s0.3999939,0.0999985,0.6999969,0.0999985h2.1999969
				c0.5,0,0.6000061-0.2000008,0.5-0.7000008l-3-6.2000008v-0.1000004c1.6000061-0.7000008,2.5-2.1000004,2.5-4.1000004v-2.2000008
				c0-1.3999996-0.3999939-2.5-1.1999969-3.2999992s-1.8999939-1.2000008-3.3999939-1.2000008h-6.6000061
				c-0.3999939,0-0.6000061,0.2000008-0.6000061,0.6000004v16.6000042c0,0.4000015,0.1999969,0.5999985,0.6000061,0.5999985
				h2.3999939C218.3000031,36.5999908,218.5,36.3999939,218.5,35.9999924 M204.1000061,27.0999928v-4.8999996
				c0-0.2000008,0.1000061-0.2999992,0.3000031-0.2999992h2.8999939c0.6000061,0,1,0.1000004,1.1999969,0.3999996
				s0.3999939,0.7000008,0.3999939,1.2999992v2.2999992c0,0.6000004-0.1000061,1-0.3999939,1.2000008
				s-0.6000061,0.3999996-1.1999969,0.3999996h-2.8999939C204.1999969,27.399992,204.1000061,27.2999916,204.1000061,27.0999928
				 M204.1000061,35.9999924v-5.2000008c0-0.2000008,0.1000061-0.2999992,0.3000031-0.2999992h3.5
				c1.3999939,0,2.6000061-0.3999996,3.3000031-1.2000008c0.8000031-0.7999992,1.1999969-1.8999996,1.1999969-3.2999992V23.399992
				c0-1.3999996-0.3999939-2.5-1.1999969-3.2999992s-1.8999939-1.2000008-3.3000031-1.2000008h-6.8000031
				c-0.3999939,0-0.6000061,0.2000008-0.6000061,0.6000004v16.5999985c0,0.4000015,0.1999969,0.5999985,0.6000061,0.5999985H203.5
				C203.8999939,36.5999908,204.1000061,36.3999939,204.1000061,35.9999924 M189.6999969,27.0999928v-4.8999996
				c0-0.2000008,0.1000061-0.2999992,0.3000031-0.2999992h2.8999939c0.6000061,0,1,0.1000004,1.1999969,0.3999996
				s0.3999939,0.7000008,0.3999939,1.2999992v2.2999992c0,0.6000004-0.1000061,1-0.3999939,1.2000008
				s-0.6000061,0.3999996-1.1999969,0.3999996H190C189.8000031,27.399992,189.6999969,27.2999916,189.6999969,27.0999928
				 M189.6999969,35.9999924v-5.2000008c0-0.2000008,0.1000061-0.2999992,0.3000031-0.2999992h3.5
				c1.3999939,0,2.6000061-0.3999996,3.3999939-1.2000008c0.8000031-0.7999992,1.1999969-1.8999996,1.1999969-3.2999992V23.399992
				c0-1.3999996-0.3999939-2.5-1.1999969-3.2999992S195,18.899992,193.5,18.899992h-6.6999969
				c-0.3999939,0-0.6000061,0.2000008-0.6000061,0.6000004v16.5999985c0,0.4000015,0.1999969,0.5999985,0.6000061,0.5999985
				h2.3999939C189.5,36.5999908,189.6999969,36.3999939,189.6999969,35.9999924 M177,22.1999931l2,8h-4.1000061l2-8H177z
				 M173.3000031,36.4999924c0.1000061-0.0999985,0.1000061-0.2000008,0.1999969-0.5l0.8000031-3h5.3999939l0.8000031,3
				c0,0.2000008,0.1000061,0.4000015,0.1999969,0.5c0.1000061,0.0999985,0.1999969,0.0999985,0.3999939,0.0999985h2.6000061
				c0.3000031,0,0.3999939-0.2000008,0.3000031-0.5999985l-4.3999939-16.6000004
				c-0.1000061-0.3999996-0.3999939-0.6000004-0.8000031-0.6000004h-3.6999969
				c-0.3999939,0-0.6999969,0.2000008-0.8000031,0.6000004l-4.4000092,16.6000004
				c-0.1000061,0.4000015,0,0.5999985,0.3000031,0.5999985h2.6000061
				C173.1000061,36.5999908,173.1999969,36.5999908,173.3000031,36.4999924"/>
			<path class="st0" d="M152.8000031,35.9999924V25.7999916h0.1000061l5.5,10.2999992c0.1999969,0.4000015,0.5,0.5,0.8999939,0.5h2
				c0.3999939,0,0.6000061-0.2000008,0.6000061-0.5999985V19.399992c0-0.3999996-0.1999969-0.6000004-0.6000061-0.6000004H159
				c-0.3999939,0-0.6000061,0.2000008-0.6000061,0.6000004v10.3000011h-0.1000061l-5.6000061-10.5
				c-0.1000061-0.2999992-0.3999939-0.3999996-0.8000031-0.3999996h-2.1000061
				c-0.3999939,0-0.6000061,0.2000008-0.6000061,0.6000004v16.5999985c0,0.4000015,0.1999969,0.5999985,0.6000061,0.5999985
				h2.3000031C152.6000061,36.5999908,152.8000031,36.3999939,152.8000031,35.9999924 M140.1999969,22.1999931l2,8h-4.1000061l2-8
				H140.1999969z M136.5,36.4999924c0.1000061-0.0999985,0.1000061-0.2000008,0.1999969-0.5l0.8000031-3h5.3999939l0.8000031,3
				c0,0.2000008,0.1000061,0.4000015,0.1999969,0.5c0.1000061,0.0999985,0.1999969,0.0999985,0.3999939,0.0999985h2.6000061
				c0.3000031,0,0.3999939-0.2000008,0.3000031-0.5999985l-4.3999939-16.6000004
				c-0.1000061-0.3999996-0.3999939-0.6000004-0.8000031-0.6000004h-3.6999969
				c-0.3999939,0-0.6999969,0.2000008-0.8000031,0.6000004l-4.3999939,16.6000004
				c-0.1000061,0.4000015,0,0.5999985,0.3000031,0.5999985h2.6000061
				C136.3000031,36.5999908,136.3999939,36.5999908,136.5,36.4999924 M128.3999939,35.9999924V22.1999931
				c0-0.2000008,0.1000061-0.2999992,0.3000031-0.2999992h3.1999969c0.3999939,0,0.6000061-0.2000008,0.6000061-0.6000004
				v-1.8999996c0-0.3999996-0.1999969-0.6000004-0.6000061-0.6000004h-10.5c-0.4000015,0-0.5999985,0.2000008-0.5999985,0.6000004
				v1.8999996c0,0.3999996,0.1999969,0.6000004,0.5999985,0.6000004h3.1999969c0.1999969,0,0.3000031,0.1000004,0.3000031,0.2999992
				v13.8999977c0,0.4000015,0.1999969,0.5999985,0.5999985,0.5999985h2.3000031
				C128.1999969,36.5999908,128.3999939,36.3999939,128.3999939,35.9999924 M111,26.899992v-4.8000011
				c0-0.2000008,0.0999985-0.2999992,0.3000031-0.2999992H114c0.5999985,0,1,0.1000004,1.3000031,0.3999996
				s0.4000015,0.7000008,0.4000015,1.2000008v2.2000008c0,0.5-0.0999985,1-0.4000015,1.2000008
				S114.6000061,27.1999931,114,27.1999931h-2.6999969C111.0999985,27.2999916,111,27.1999931,111,26.899992 M111,35.9999924
				v-5.7000008c0-0.2000008,0.0999985-0.2999992,0.3000031-0.2999992h1.8000031l2.8000031,6
				c0.0999985,0.2000008,0.1999969,0.4000015,0.4000015,0.5s0.4000015,0.0999985,0.6999969,0.0999985h2.1999969
				c0.5,0,0.5999985-0.2000008,0.5-0.7000008l-3-6.2000008v-0.1000004c1.5999985-0.7000008,2.5-2.1000004,2.5-4.1000004v-2.2000008
				c0-1.3999996-0.4000015-2.5-1.1999969-3.2999992c-0.8000031-0.7999992-1.9000015-1.2000008-3.4000015-1.2000008H108
				c-0.4000015,0-0.5999985,0.2000008-0.5999985,0.6000004v16.6000042c0,0.4000015,0.1999969,0.5999985,0.5999985,0.5999985
				h2.3000031C110.8000031,36.5999908,111,36.3999939,111,35.9999924 M98.3000031,22.1999931l2,8h-4.0999985L98.3000031,22.1999931
				L98.3000031,22.1999931z M94.5999985,36.4999924c0.0999985-0.0999985,0.0999985-0.2000008,0.1999969-0.5l0.8000031-3H101
				l0.8000031,3c0,0.2000008,0.0999985,0.4000015,0.1999969,0.5s0.1999969,0.0999985,0.4000015,0.0999985h2.6999969
				c0.3000031,0,0.4000015-0.2000008,0.3000031-0.5999985l-4.5-16.6000004
				c-0.0999985-0.3999996-0.4000015-0.6000004-0.8000031-0.6000004h-3.6999969
				c-0.4000015,0-0.6999969,0.2000008-0.8000031,0.6000004l-4.4000015,16.6000004
				c-0.0999985,0.4000015,0,0.5999985,0.3000031,0.5999985h2.6999969C94.4000015,36.5999908,94.5,36.5999908,94.5999985,36.4999924
				 M81.5,27.0999928v-4.8999996c0-0.2000008,0.0999985-0.2999992,0.3000031-0.2999992h2.9000015
				c0.5999985,0,1,0.1000004,1.1999969,0.3999996s0.4000015,0.7000008,0.4000015,1.2999992v2.2999992
				c0,0.6000004-0.0999985,1-0.4000015,1.2000008s-0.6999969,0.3999996-1.1999969,0.3999996h-2.9000015
				C81.5999985,27.399992,81.5,27.2999916,81.5,27.0999928 M81.5,35.9999924v-5.2000008
				c0-0.2000008,0.0999985-0.2999992,0.3000031-0.2999992h3.5c1.4000015,0,2.5999985-0.3999996,3.3000031-1.2000008
				c0.8000031-0.7999992,1.1999969-1.8999996,1.1999969-3.2999992V23.399992c0-1.3999996-0.4000015-2.5-1.1999969-3.2999992
				c-0.8000031-0.7999992-1.9000015-1.2000008-3.3000031-1.2000008h-6.6999969
				c-0.4000015,0-0.5999985,0.2000008-0.5999985,0.6000004v16.5999985c0,0.4000015,0.1999969,0.5999985,0.5999985,0.5999985
				h2.3000031C81.3000031,36.5999908,81.5,36.3999939,81.5,35.9999924"/>
			<path class="st0" d="M64.0999985,35.3999939C64.9000015,36.1999931,66,36.5999947,67.5,36.5999947h3
				c1.4000015,0,2.5999985-0.4000015,3.4000015-1.2000008s1.1999969-1.9000015,1.1999969-3.2999992V31.199995
				c0-1.1000004-0.1999969-2-0.6999969-2.7000008s-1-1.2000008-1.5999985-1.5
				c-1.1999969-0.5-2.5999985-0.7999992-4.1999969-0.8999996c-1.5-0.1000004-2.3000031-0.6000004-2.3000031-1.5v-0.5
				c0-0.7999992,0.0999985-1.3999996,0.4000015-1.7000008c0.3000031-0.2999992,0.8000031-0.3999996,1.5-0.3999996h1.0999985
				c0.6999969,0,1.1999969,0.1000004,1.5,0.3999996s0.4000015,0.7999992,0.4000015,1.5v0.2000008
				c0,0.3999996,0.1999969,0.6000004,0.5999985,0.6000004h2.3000031c0.4000015,0,0.5999985-0.2000008,0.5999985-0.6000004v-0.5
				c0-1.3999996-0.4000015-2.5-1.1999969-3.2999992c-0.8000031-0.7999992-1.9000015-1.2000008-3.4000015-1.2000008h-2.8000031
				c-1.4000015,0-2.5999985,0.3999996-3.4000015,1.2000008c-0.7999992,0.7999992-1.2000008,1.8999996-1.2000008,3.2999992v1
				c0,1.1000004,0.2000008,2.1000004,0.7000008,2.7999992s1,1.2000008,1.5999985,1.5s1.3000031,0.5,2.0999985,0.6000004
				S68.5,29.7999935,69.1999969,29.7999935c0.5999985,0,1.1999969,0.2000008,1.5999985,0.5s0.6999969,0.7000008,0.6999969,1.2000008
				v0.2999992c0,0.8000011-0.0999985,1.3000011-0.4000015,1.5000019c-0.3000031,0.2999992-0.8000031,0.4000015-1.5,0.4000015
				h-1.3000031c-0.6999969,0-1.1999969-0.0999985-1.5-0.4000015c-0.3000031-0.2999992-0.4000015-0.7000008-0.4000015-1.3999996
				V31.699995c0-0.3999996-0.1999969-0.6000004-0.5999985-0.6000004h-2.2999992
				c-0.4000015,0-0.5999985,0.2000008-0.5999985,0.6000004v0.5000019
				C62.9000015,33.4999924,63.2999992,34.5999908,64.0999985,35.3999939"/>
		</g>
	</g>
</g>
</svg>
