<?xml version="1.0" encoding="utf-8"?>
<svg viewBox="0 0 52.8 51.155" style="enable-background:new 0 0 286.8999939 53.7000008;" fill="#ffffff" xmlns="http://www.w3.org/2000/svg">
  <defs>
    <style type="text/css">
	.st0{fill:#FFFFFF;}
</style>
  </defs>
  <g transform="matrix(1, 0, 0, 1, 4.293958, -2.226497)">
    <path class="st0" d="M35.3786011,29.5977993h-3.3689194H12.3328209c0,0,0,0,0-0.039753 c0-6.3601971,5.1676617-11.5179195,11.5179214-11.5179195c3.1105366,0,5.9328709,1.2422256,8.0198116,3.2397251 c0,0.039753,0.039753,0.039753,0.0894413,0.0894413c0.0397511,0.0397511,0.0894394,0.0894394,0.1291924,0.0894394 C34.0966263,23.5456734,35.3786011,26.3978233,35.3786011,29.5977993L35.3786011,29.5977993L35.3786011,29.5977993z M32.3873215,30.7505856h2.9415894v7.5527325l-2.9415894-1.9179955V30.7505856z M31.2842236,35.6201096l-7.5129833-4.869524 h7.5129833V35.6201096L31.2842236,35.6201096z M31.2842236,47.0982819l-11.4384193-6.320446V30.7505856h1.8782463 c0.0397511,0.0397511,0.0397511,0.0397511,0.0894394,0.0894394l9.4309807,6.1415653L31.2842236,47.0982819L31.2842236,47.0982819z M14.7675848,36.6834564c-1.3614798-1.749054-2.1763802-3.7962418-2.3850756-5.9726238h6.3204479v5.9726238H14.7675848z M23.8606815,6.2538843c6.1415653,0,11.8657436,2.3850746,16.1290607,6.7477722l-7.6421738,7.2148504 c-2.2658215-2.0471878-5.2074108-3.2894154-8.4968262-3.2894154c-6.9564667,0-12.6309557,5.6744881-12.6309557,12.6309547 c0,0.1291924,0,0.2583847,0,0.4273262c-0.0397511,0.039753-0.0397511,0.1291924-0.0397511,0.1689434 c0,0.0894413,0,0.1689434,0.0397511,0.2086926c0.1689434,2.4745159,1.0235939,4.8198376,2.5639553,6.8272762l0,0 c0,0.1291924,0.0397511,0.2086945,0.0894403,0.2981339l-7.006156,6.6185799 c-3.7068031-4.1738777-5.7539921-9.5104828-5.7539921-15.1054707C1.1130346,16.4600143,11.309227,6.2538843,23.8606815,6.2538843 M41.3512268,13.0414076v-0.0397511v-0.0397511v-0.0496883v-0.0397511 c-0.039753-0.0894413-0.0894432-0.1291924-0.1291924-0.1689434c-4.5614548-4.9092779-10.7527103-7.5527349-17.3613529-7.5527349 C10.7129583,5.1507874,0,15.8637457,0,29.0015297c0,6.0620651,2.2658205,11.8657455,6.3999496,16.2582588 c0.0397511,0.039753,0.0397511,0.039753,0.0894403,0.039753l0,0c0.0397511,0,0.0397511,0.039753,0.0894403,0.039753l0,0 c0.0397511,0,0.0397511,0.039753,0.0894403,0.039753l0,0c0.0397511,0,0.0894403,0,0.1291919,0c0.0397511,0,0.0894403,0,0.0894403,0 h0.0397511h0.0298128c0,0,0.0397511,0,0.0397511-0.039753h0.0397511l0.0397515-0.039753c0,0,0,0,0.0397511-0.039753l0,0l0,0l0,0 l8.0198116-7.4732323c0,0,0,0,0-0.039753h3.4583578v3.3291664c0,0,0,0,0,0.0397491v0.039753v0.039753v0.039753v0.039753 c0,0,0,0.0397491,0.0397511,0.0397491c0.039753,0,0,0.039753,0.039753,0.039753c0,0,0,0.039753,0.0397511,0.039753 l0.039753,0.039753l0.0397511,0.039753l0.039753,0.0397491l0,0l12.720396,6.9962196l0,0 c0.0397511,0,0.0397511,0.039753,0.0894394,0.039753h0.039753c0.0397511,0,0.0894394,0,0.1291924,0l0,0l0,0 c0.0397511,0,0.0894394,0,0.1291924,0h0.039753c0.0397511,0,0.0894413-0.039753,0.0894413-0.039753h0.0397491 c0.039753-0.039753,0.0894432-0.039753,0.0894432-0.0894394l0,0c0.0397491-0.039753,0.0397491-0.0894394,0.0894394-0.0894394l0,0 c0,0,0,0,0-0.039753c0,0,0-0.039753,0.039753-0.039753v-0.039753v-0.0397606c0-0.0397491,0-0.0397491,0-0.0397491s0,0,0-0.039753 V37.7070503l3.1999741,2.0869408l0,0l0,0c0.039753,0,0.039753,0.039753,0.0894394,0.039753c0,0,0,0,0.039753,0 s0.039753,0,0.0894394,0.0397491c0,0,0,0,0.039753,0s0.0894432,0,0.0894432,0l0,0c0.0397491,0,0.0894394,0,0.1291924,0h0.0397491 c0.039753,0,0.039753-0.0397491,0.0894432-0.0397491c0,0,0.0397491,0,0.0397491-0.039753 c0.039753,0,0.039753-0.039753,0.0894432-0.039753c0,0,0.039753,0,0.039753-0.039753 c0.0397491-0.039753,0.0397491-0.039753,0.0894394-0.0894394l0,0c0,0,0,0,0-0.039753s0.039753-0.039753,0.039753-0.0894394 v-0.039753v-0.039753c0-0.039753,0-0.039753,0-0.0894394v-0.039753V30.710825c0-0.0397511,0.0397491-0.0894394,0.0397491-0.1689415 v-0.9838448c0-3.3291664-1.2819786-6.320446-3.3689156-8.5763283l8.0198135-7.5924873l0,0 C41.2717209,13.3395424,41.3512268,13.1705999,41.3512268,13.0414076L41.3512268,13.0414076"/>
  </g>
</svg>